<svg xmlns="http://www.w3.org/2000/svg" width="1200" height="1136" viewBox="0 0 1200 1136">
  <defs>
    <linearGradient id="grad" x1="0" y1="0" x2="1" y2="1">
      <stop offset="0" stop-color="#5b5be6"/>
      <stop offset="1" stop-color="#10b7cf"/>
    </linearGradient>
    <filter id="soft" x="-20%" y="-20%" width="140%" height="140%"><feDropShadow dx="0" dy="6" stdDeviation="10" flood-color="#1f2430" flood-opacity="0.10"/></filter>
    <filter id="float" x="-40%" y="-40%" width="180%" height="200%"><feDropShadow dx="0" dy="6" stdDeviation="8" flood-color="#3b3b66" flood-opacity="0.20"/></filter>
    <filter id="topshadow" x="-20%" y="-60%" width="140%" height="200%"><feDropShadow dx="0" dy="-3" stdDeviation="5" flood-color="#1f2430" flood-opacity="0.06"/></filter>
    <filter id="fab" x="-60%" y="-60%" width="220%" height="220%"><feDropShadow dx="0" dy="5" stdDeviation="6" flood-color="#5b5be6" flood-opacity="0.45"/></filter>
  </defs>
  <rect width="1200" height="1136" fill="#eef0f5"/>
  <text x="40" y="52" font-family="Inter, system-ui, -apple-system, Segoe UI, Roboto, sans-serif" font-size="26" font-weight="800" fill="#1f2430">Bottom navigation — concept previews</text>
  <text x="40" y="76" font-family="Inter, system-ui, -apple-system, Segoe UI, Roboto, sans-serif" font-size="14" font-weight="500" fill="#737b8c">Genauly brand colors · active tab shown on “Wortschatz”. Pick one (or mix) and I’ll build it.</text>
  <text x="40" y="136" font-family="Inter, system-ui, -apple-system, Segoe UI, Roboto, sans-serif" font-size="20" font-weight="800" fill="#1f2430">Concept A — Liquid Glass</text><text x="40" y="158" font-family="Inter, system-ui, -apple-system, Segoe UI, Roboto, sans-serif" font-size="13" font-weight="500" fill="#737b8c">Floating frosted pill, soft active highlight. iOS 18 feel.</text><rect x="155" y="180" width="290" height="392" rx="30" fill="#ffffff" stroke="#e7e9f0" stroke-width="1.5" filter="url(#soft)"/><rect x="155" y="180" width="290" height="392" rx="30" fill="#fbfbfe"/><text x="179" y="211" font-family="Inter, system-ui, -apple-system, Segoe UI, Roboto, sans-serif" font-size="13" font-weight="700" fill="#1f2430">9:41</text><g fill="#1f2430"><rect x="381" y="202" width="14" height="9" rx="2"/><rect x="399" y="202" width="13" height="9" rx="2"/><rect x="417" y="201" width="20" height="11" rx="3" opacity="0.35"/><rect x="419" y="203" width="13" height="7" rx="1.5"/></g><rect x="171" y="226" width="258" height="72" rx="18" fill="url(#grad)"/><text x="189" y="262" font-family="Inter, system-ui, -apple-system, Segoe UI, Roboto, sans-serif" font-size="18" font-weight="700" fill="#fff">Wortschatz</text><text x="189" y="282" font-family="Inter, system-ui, -apple-system, Segoe UI, Roboto, sans-serif" font-size="11" font-weight="500" fill="#ffffffcc">490 Wörter · Karteikarten</text><rect x="171" y="312" width="258" height="46" rx="12" fill="#f1f2f7"/><rect x="171" y="366" width="258" height="46" rx="12" fill="#f1f2f7"/><rect x="171" y="420" width="210" height="46" rx="12" fill="#f1f2f7" opacity="0.6"/><rect x="169" y="494" width="262" height="60" rx="30" fill="#ffffff" stroke="#e9e9f2" stroke-width="1.2" filter="url(#float)"/><rect x="171" y="495.5" width="258" height="30" rx="30" fill="#ffffff" opacity="0.5"/><g transform="translate(184.7 506.5) scale(0.875)" fill="none" stroke="#9aa3b2" stroke-width="1.8" stroke-linecap="round" stroke-linejoin="round"><path d="M3.5 11 12 4l8.5 7"/><path d="M5.8 9.5V19a1 1 0 0 0 1 1H9.5v-5.2h5V20h2.7a1 1 0 0 0 1-1V9.5"/></g><text x="195.2" y="542" text-anchor="middle" font-family="Inter, system-ui, -apple-system, Segoe UI, Roboto, sans-serif" font-size="8.5" font-weight="600" fill="#9aa3b2">Dashboard</text><rect x="222.6" y="502" width="50" height="44" rx="15" fill="#ece9fd"/><g transform="translate(237.1 506.5) scale(0.875)" fill="none" stroke="#5b5be6" stroke-width="2" stroke-linecap="round" stroke-linejoin="round"><path d="M5.6 5.2A1.7 1.7 0 0 1 7.3 3.5H18.4v14H7.3a1.7 1.7 0 0 0-1.7 1.7Z"/><path d="M5.6 18.2V5.2"/></g><text x="247.6" y="542" text-anchor="middle" font-family="Inter, system-ui, -apple-system, Segoe UI, Roboto, sans-serif" font-size="8.5" font-weight="700" fill="#5b5be6">Wortschatz</text><g transform="translate(289.5 506.5) scale(0.875)" fill="none" stroke="#9aa3b2" stroke-width="1.8" stroke-linecap="round" stroke-linejoin="round"><path d="M9 6.5h9.4M9 12h9.4M9 17.5h9.4"/><path d="M4.3 6.1 5.5 7.3 7.6 5.1M4.3 11.6l1.2 1.2 2.1-2.2"/></g><text x="300" y="542" text-anchor="middle" font-family="Inter, system-ui, -apple-system, Segoe UI, Roboto, sans-serif" font-size="8.5" font-weight="600" fill="#9aa3b2">Quiz</text><g transform="translate(341.9 506.5) scale(0.875)" fill="none" stroke="#9aa3b2" stroke-width="1.8" stroke-linecap="round" stroke-linejoin="round"><path d="M5 20.5V12M10 20.5V5M15 20.5V14.5M20 20.5V8.5"/></g><text x="352.4" y="542" text-anchor="middle" font-family="Inter, system-ui, -apple-system, Segoe UI, Roboto, sans-serif" font-size="8.5" font-weight="600" fill="#9aa3b2">Fortschritt</text><g transform="translate(394.29999999999995 506.5) scale(0.875)" fill="none" stroke="#9aa3b2" stroke-width="1.8" stroke-linecap="round" stroke-linejoin="round"><rect x="5.4" y="5.4" width="4.3" height="4.3" rx="1.3"/><rect x="14.3" y="5.4" width="4.3" height="4.3" rx="1.3"/><rect x="5.4" y="14.3" width="4.3" height="4.3" rx="1.3"/><rect x="14.3" y="14.3" width="4.3" height="4.3" rx="1.3"/></g><text x="404.79999999999995" y="542" text-anchor="middle" font-family="Inter, system-ui, -apple-system, Segoe UI, Roboto, sans-serif" font-size="8.5" font-weight="600" fill="#9aa3b2">Mehr</text><rect x="268" y="564" width="64" height="4.5" rx="2.25" fill="#cfd3dc"/><text x="640" y="136" font-family="Inter, system-ui, -apple-system, Segoe UI, Roboto, sans-serif" font-size="20" font-weight="800" fill="#1f2430">Concept B — Material You</text><text x="640" y="158" font-family="Inter, system-ui, -apple-system, Segoe UI, Roboto, sans-serif" font-size="13" font-weight="500" fill="#737b8c">Full bar, pill indicator behind the active icon. Android M3.</text><rect x="755" y="180" width="290" height="392" rx="30" fill="#ffffff" stroke="#e7e9f0" stroke-width="1.5" filter="url(#soft)"/><rect x="755" y="180" width="290" height="392" rx="30" fill="#fbfbfe"/><text x="779" y="211" font-family="Inter, system-ui, -apple-system, Segoe UI, Roboto, sans-serif" font-size="13" font-weight="700" fill="#1f2430">9:41</text><g fill="#1f2430"><rect x="981" y="202" width="14" height="9" rx="2"/><rect x="999" y="202" width="13" height="9" rx="2"/><rect x="1017" y="201" width="20" height="11" rx="3" opacity="0.35"/><rect x="1019" y="203" width="13" height="7" rx="1.5"/></g><rect x="771" y="226" width="258" height="72" rx="18" fill="url(#grad)"/><text x="789" y="262" font-family="Inter, system-ui, -apple-system, Segoe UI, Roboto, sans-serif" font-size="18" font-weight="700" fill="#fff">Wortschatz</text><text x="789" y="282" font-family="Inter, system-ui, -apple-system, Segoe UI, Roboto, sans-serif" font-size="11" font-weight="500" fill="#ffffffcc">490 Wörter · Karteikarten</text><rect x="771" y="312" width="258" height="46" rx="12" fill="#f1f2f7"/><rect x="771" y="366" width="258" height="46" rx="12" fill="#f1f2f7"/><rect x="771" y="420" width="210" height="46" rx="12" fill="#f1f2f7" opacity="0.6"/><rect x="755" y="492" width="290" height="80" fill="#ffffff" filter="url(#topshadow)"/><line x1="755" y1="492" x2="1045" y2="492" stroke="#edeef3" stroke-width="1"/><g transform="translate(773.5 509.5) scale(0.875)" fill="none" stroke="#9aa3b2" stroke-width="1.8" stroke-linecap="round" stroke-linejoin="round"><path d="M3.5 11 12 4l8.5 7"/><path d="M5.8 9.5V19a1 1 0 0 0 1 1H9.5v-5.2h5V20h2.7a1 1 0 0 0 1-1V9.5"/></g><text x="784" y="550" text-anchor="middle" font-family="Inter, system-ui, -apple-system, Segoe UI, Roboto, sans-serif" font-size="10" font-weight="500" fill="#9aa3b2">Dashboard</text><rect x="815" y="505" width="54" height="30" rx="15" fill="#ece9fd"/><g transform="translate(831.5 509.5) scale(0.875)" fill="none" stroke="#5b5be6" stroke-width="2" stroke-linecap="round" stroke-linejoin="round"><path d="M5.6 5.2A1.7 1.7 0 0 1 7.3 3.5H18.4v14H7.3a1.7 1.7 0 0 0-1.7 1.7Z"/><path d="M5.6 18.2V5.2"/></g><text x="842" y="550" text-anchor="middle" font-family="Inter, system-ui, -apple-system, Segoe UI, Roboto, sans-serif" font-size="10" font-weight="700" fill="#5b5be6">Wortschatz</text><g transform="translate(889.5 509.5) scale(0.875)" fill="none" stroke="#9aa3b2" stroke-width="1.8" stroke-linecap="round" stroke-linejoin="round"><path d="M9 6.5h9.4M9 12h9.4M9 17.5h9.4"/><path d="M4.3 6.1 5.5 7.3 7.6 5.1M4.3 11.6l1.2 1.2 2.1-2.2"/></g><text x="900" y="550" text-anchor="middle" font-family="Inter, system-ui, -apple-system, Segoe UI, Roboto, sans-serif" font-size="10" font-weight="500" fill="#9aa3b2">Quiz</text><g transform="translate(947.5 509.5) scale(0.875)" fill="none" stroke="#9aa3b2" stroke-width="1.8" stroke-linecap="round" stroke-linejoin="round"><path d="M5 20.5V12M10 20.5V5M15 20.5V14.5M20 20.5V8.5"/></g><text x="958" y="550" text-anchor="middle" font-family="Inter, system-ui, -apple-system, Segoe UI, Roboto, sans-serif" font-size="10" font-weight="500" fill="#9aa3b2">Fortschritt</text><g transform="translate(1005.5 509.5) scale(0.875)" fill="none" stroke="#9aa3b2" stroke-width="1.8" stroke-linecap="round" stroke-linejoin="round"><rect x="5.4" y="5.4" width="4.3" height="4.3" rx="1.3"/><rect x="14.3" y="5.4" width="4.3" height="4.3" rx="1.3"/><rect x="5.4" y="14.3" width="4.3" height="4.3" rx="1.3"/><rect x="14.3" y="14.3" width="4.3" height="4.3" rx="1.3"/></g><text x="1016" y="550" text-anchor="middle" font-family="Inter, system-ui, -apple-system, Segoe UI, Roboto, sans-serif" font-size="10" font-weight="500" fill="#9aa3b2">Mehr</text><rect x="868" y="564" width="64" height="4.5" rx="2.25" fill="#cfd3dc"/><text x="40" y="656" font-family="Inter, system-ui, -apple-system, Segoe UI, Roboto, sans-serif" font-size="20" font-weight="800" fill="#1f2430">Concept C — Center action</text><text x="40" y="678" font-family="Inter, system-ui, -apple-system, Segoe UI, Roboto, sans-serif" font-size="13" font-weight="500" fill="#737b8c">Raised gradient button for the main action (e.g. Üben).</text><rect x="155" y="700" width="290" height="392" rx="30" fill="#ffffff" stroke="#e7e9f0" stroke-width="1.5" filter="url(#soft)"/><rect x="155" y="700" width="290" height="392" rx="30" fill="#fbfbfe"/><text x="179" y="731" font-family="Inter, system-ui, -apple-system, Segoe UI, Roboto, sans-serif" font-size="13" font-weight="700" fill="#1f2430">9:41</text><g fill="#1f2430"><rect x="381" y="722" width="14" height="9" rx="2"/><rect x="399" y="722" width="13" height="9" rx="2"/><rect x="417" y="721" width="20" height="11" rx="3" opacity="0.35"/><rect x="419" y="723" width="13" height="7" rx="1.5"/></g><rect x="171" y="746" width="258" height="72" rx="18" fill="url(#grad)"/><text x="189" y="782" font-family="Inter, system-ui, -apple-system, Segoe UI, Roboto, sans-serif" font-size="18" font-weight="700" fill="#fff">Wortschatz</text><text x="189" y="802" font-family="Inter, system-ui, -apple-system, Segoe UI, Roboto, sans-serif" font-size="11" font-weight="500" fill="#ffffffcc">490 Wörter · Karteikarten</text><rect x="171" y="832" width="258" height="46" rx="12" fill="#f1f2f7"/><rect x="171" y="886" width="258" height="46" rx="12" fill="#f1f2f7"/><rect x="171" y="940" width="210" height="46" rx="12" fill="#f1f2f7" opacity="0.6"/><rect x="155" y="1022" width="290" height="70" fill="#ffffff" filter="url(#topshadow)"/><line x1="155" y1="1022" x2="445" y2="1022" stroke="#edeef3" stroke-width="1"/><g transform="translate(185.1 1038.5) scale(0.875)" fill="none" stroke="#9aa3b2" stroke-width="1.8" stroke-linecap="round" stroke-linejoin="round"><path d="M3.5 11 12 4l8.5 7"/><path d="M5.8 9.5V19a1 1 0 0 0 1 1H9.5v-5.2h5V20h2.7a1 1 0 0 0 1-1V9.5"/></g><text x="195.6" y="1072" text-anchor="middle" font-family="Inter, system-ui, -apple-system, Segoe UI, Roboto, sans-serif" font-size="9" font-weight="500" fill="#9aa3b2">Dashboard</text><g transform="translate(243.10000000000002 1038.5) scale(0.875)" fill="none" stroke="#5b5be6" stroke-width="2" stroke-linecap="round" stroke-linejoin="round"><path d="M5.6 5.2A1.7 1.7 0 0 1 7.3 3.5H18.4v14H7.3a1.7 1.7 0 0 0-1.7 1.7Z"/><path d="M5.6 18.2V5.2"/></g><text x="253.60000000000002" y="1072" text-anchor="middle" font-family="Inter, system-ui, -apple-system, Segoe UI, Roboto, sans-serif" font-size="9" font-weight="700" fill="#5b5be6">Wortschatz</text><g transform="translate(335.9 1038.5) scale(0.875)" fill="none" stroke="#9aa3b2" stroke-width="1.8" stroke-linecap="round" stroke-linejoin="round"><path d="M5 20.5V12M10 20.5V5M15 20.5V14.5M20 20.5V8.5"/></g><text x="346.4" y="1072" text-anchor="middle" font-family="Inter, system-ui, -apple-system, Segoe UI, Roboto, sans-serif" font-size="9" font-weight="500" fill="#9aa3b2">Fortschritt</text><g transform="translate(393.9 1038.5) scale(0.875)" fill="none" stroke="#9aa3b2" stroke-width="1.8" stroke-linecap="round" stroke-linejoin="round"><rect x="5.4" y="5.4" width="4.3" height="4.3" rx="1.3"/><rect x="14.3" y="5.4" width="4.3" height="4.3" rx="1.3"/><rect x="5.4" y="14.3" width="4.3" height="4.3" rx="1.3"/><rect x="14.3" y="14.3" width="4.3" height="4.3" rx="1.3"/></g><text x="404.4" y="1072" text-anchor="middle" font-family="Inter, system-ui, -apple-system, Segoe UI, Roboto, sans-serif" font-size="9" font-weight="500" fill="#9aa3b2">Mehr</text><circle cx="300" cy="1022" r="30" fill="#ffffff"/><circle cx="300" cy="1022" r="26" fill="url(#grad)" filter="url(#fab)"/><g transform="translate(288.5 1010.5) scale(0.9583333333333334)" fill="none" stroke="#ffffff" stroke-width="2" stroke-linecap="round" stroke-linejoin="round"><path d="M5 19.1 6 15 16 5l3 3L9 18Z"/><path d="M13.5 7.5l3 3"/></g><text x="300" y="1072" text-anchor="middle" font-family="Inter, system-ui, -apple-system, Segoe UI, Roboto, sans-serif" font-size="9" font-weight="700" fill="#5b5be6">Üben</text><rect x="268" y="1084" width="64" height="4.5" rx="2.25" fill="#cfd3dc"/><text x="640" y="656" font-family="Inter, system-ui, -apple-system, Segoe UI, Roboto, sans-serif" font-size="20" font-weight="800" fill="#1f2430">Concept D — Expanding pill</text><text x="640" y="678" font-family="Inter, system-ui, -apple-system, Segoe UI, Roboto, sans-serif" font-size="13" font-weight="500" fill="#737b8c">Icons only; the active tab expands to reveal its label.</text><rect x="755" y="700" width="290" height="392" rx="30" fill="#ffffff" stroke="#e7e9f0" stroke-width="1.5" filter="url(#soft)"/><rect x="755" y="700" width="290" height="392" rx="30" fill="#fbfbfe"/><text x="779" y="731" font-family="Inter, system-ui, -apple-system, Segoe UI, Roboto, sans-serif" font-size="13" font-weight="700" fill="#1f2430">9:41</text><g fill="#1f2430"><rect x="981" y="722" width="14" height="9" rx="2"/><rect x="999" y="722" width="13" height="9" rx="2"/><rect x="1017" y="721" width="20" height="11" rx="3" opacity="0.35"/><rect x="1019" y="723" width="13" height="7" rx="1.5"/></g><rect x="771" y="746" width="258" height="72" rx="18" fill="url(#grad)"/><text x="789" y="782" font-family="Inter, system-ui, -apple-system, Segoe UI, Roboto, sans-serif" font-size="18" font-weight="700" fill="#fff">Wortschatz</text><text x="789" y="802" font-family="Inter, system-ui, -apple-system, Segoe UI, Roboto, sans-serif" font-size="11" font-weight="500" fill="#ffffffcc">490 Wörter · Karteikarten</text><rect x="771" y="832" width="258" height="46" rx="12" fill="#f1f2f7"/><rect x="771" y="886" width="258" height="46" rx="12" fill="#f1f2f7"/><rect x="771" y="940" width="210" height="46" rx="12" fill="#f1f2f7" opacity="0.6"/><rect x="755" y="1022" width="290" height="70" fill="#ffffff" filter="url(#topshadow)"/><line x1="755" y1="1022" x2="1045" y2="1022" stroke="#edeef3" stroke-width="1"/><g transform="translate(764.5 1045.5) scale(0.875)" fill="none" stroke="#9aa3b2" stroke-width="1.8" stroke-linecap="round" stroke-linejoin="round"><path d="M3.5 11 12 4l8.5 7"/><path d="M5.8 9.5V19a1 1 0 0 0 1 1H9.5v-5.2h5V20h2.7a1 1 0 0 0 1-1V9.5"/></g><rect x="801" y="1034" width="112" height="44" rx="22" fill="#5b5be6"/><g transform="translate(816.5 1045.5) scale(0.875)" fill="none" stroke="#ffffff" stroke-width="2" stroke-linecap="round" stroke-linejoin="round"><path d="M5.6 5.2A1.7 1.7 0 0 1 7.3 3.5H18.4v14H7.3a1.7 1.7 0 0 0-1.7 1.7Z"/><path d="M5.6 18.2V5.2"/></g><text x="845" y="1060.5" font-family="Inter, system-ui, -apple-system, Segoe UI, Roboto, sans-serif" font-size="13" font-weight="700" fill="#ffffff">Wortschatz</text><g transform="translate(928.5 1045.5) scale(0.875)" fill="none" stroke="#9aa3b2" stroke-width="1.8" stroke-linecap="round" stroke-linejoin="round"><path d="M9 6.5h9.4M9 12h9.4M9 17.5h9.4"/><path d="M4.3 6.1 5.5 7.3 7.6 5.1M4.3 11.6l1.2 1.2 2.1-2.2"/></g><g transform="translate(971.5 1045.5) scale(0.875)" fill="none" stroke="#9aa3b2" stroke-width="1.8" stroke-linecap="round" stroke-linejoin="round"><path d="M5 20.5V12M10 20.5V5M15 20.5V14.5M20 20.5V8.5"/></g><g transform="translate(1014.5 1045.5) scale(0.875)" fill="none" stroke="#9aa3b2" stroke-width="1.8" stroke-linecap="round" stroke-linejoin="round"><rect x="5.4" y="5.4" width="4.3" height="4.3" rx="1.3"/><rect x="14.3" y="5.4" width="4.3" height="4.3" rx="1.3"/><rect x="5.4" y="14.3" width="4.3" height="4.3" rx="1.3"/><rect x="14.3" y="14.3" width="4.3" height="4.3" rx="1.3"/></g><rect x="868" y="1084" width="64" height="4.5" rx="2.25" fill="#cfd3dc"/>
</svg>