<svg xmlns="http://www.w3.org/2000/svg" width="708" height="662" viewBox="0 0 708 662">
<rect width="708" height="662" fill="#fff" />
<rect x="10" y="10" width="668" height="314" rx="14" fill="#f8fafc" />
  <text x="30" y="40" font-family="system-ui" font-size="13" font-weight="600" fill="#334155">Light · unlit / lit</text>
  <svg x="30" y="54" width="88" height="88" viewBox="0 0 20 20" fill="none">
    <g transform="translate(10 18) scale(1.0959) translate(-10.4000 -17.2)">
      <rect x="3.4" y="2.6" width="9.2" height="14.6" rx="0.9" fill="#5b5be6" />
      <rect x="12.6" y="8.6" width="4.8" height="8.6" rx="0.9" fill="#22d3ee" />
      
      <rect x="5.2" y="4.6" width="2.1" height="1.7" rx="0.3" fill="#fff" opacity="0.5" />
      <rect x="8.6" y="4.6" width="2.1" height="1.7" rx="0.3" fill="#fff" opacity="0.5" />
      <rect x="5.2" y="7.5" width="2.1" height="1.7" rx="0.3" fill="#fff" opacity="0.5" />
      <rect x="8.6" y="7.5" width="2.1" height="1.7" rx="0.3" fill="#fff" opacity="0.5" />
      <rect x="5.2" y="10.4" width="2.1" height="1.7" rx="0.3" fill="#fff" opacity="0.5" />
      <rect x="8.6" y="10.4" width="2.1" height="1.7" rx="0.3" fill="#fff" opacity="0.5" />
      <rect x="5.2" y="13.3" width="2.1" height="1.7" rx="0.3" fill="#fff" opacity="0.5" />
      <rect x="8.6" y="13.3" width="2.1" height="1.7" rx="0.3" fill="#fff" opacity="0.5" />
      <rect x="14" y="10.6" width="2.1" height="1.7" rx="0.3" fill="#fff" opacity="0.8" />
      <rect x="14" y="13.5" width="2.1" height="1.7" rx="0.3" fill="#fff" opacity="0.8" /></g>
  </svg>
  <text x="74" y="158" text-anchor="middle" font-family="system-ui" font-size="11" fill="#334155" opacity="0.75">Büro</text>
  <svg x="138" y="54" width="88" height="88" viewBox="0 0 20 20" fill="none">
    <g transform="translate(10 18) scale(1.0316) translate(-10.0000 -17.2)">
      <path d="M10 2 2.4 7.2H17.6L10 2Z" fill="#fbbf24" />
      <circle cx="10" cy="5.5" r="0.9" fill="#fff" opacity="0.75" />
      <rect x="3.2" y="7.2" width="13.6" height="1.4" rx="0.3" fill="#64748b" />
      
      <rect x="5.8" y="8.6" width="1.6" height="6.9" fill="#64748b" opacity="0.28" />
      <rect x="9.2" y="8.6" width="1.6" height="6.9" fill="#64748b" opacity="0.28" />
      <rect x="12.6" y="8.6" width="1.6" height="6.9" fill="#64748b" opacity="0.28" />
      
      <rect x="4" y="8.6" width="1.8" height="6.9" fill="#64748b" />
      <rect x="7.4" y="8.6" width="1.8" height="6.9" fill="#64748b" />
      <rect x="10.8" y="8.6" width="1.8" height="6.9" fill="#64748b" />
      <rect x="14.2" y="8.6" width="1.8" height="6.9" fill="#64748b" />
      <rect x="2.4" y="15.5" width="15.2" height="1.7" rx="0.4" fill="#64748b" /></g>
  </svg>
  <text x="182" y="158" text-anchor="middle" font-family="system-ui" font-size="11" fill="#334155" opacity="0.75">Bürgeramt</text>
  <svg x="246" y="54" width="88" height="88" viewBox="0 0 20 20" fill="none">
    <g transform="translate(10 18) scale(1.0105) translate(-10.0000 -17.2)">
      <rect x="2.4" y="4.8" width="15.2" height="1.7" rx="0.5" fill="#67e8f9" />
      <rect x="3.2" y="6.5" width="13.6" height="9.2" fill="#0ea5e9" />
      <rect x="2.6" y="15.7" width="14.8" height="1.5" rx="0.4" fill="#0ea5e9" opacity="0.85" />
      <circle cx="10" cy="9.7" r="1.7" fill="none" stroke-width="1.25" stroke="#fff" opacity="0.85" />
      <rect x="8.9" y="13.6" width="2.2" height="2.1" fill="#fff" opacity="0.5" />
      <rect x="4.6" y="12.4" width="1.9" height="1.9" rx="0.3" fill="#fff" opacity="0.5" />
      <rect x="13.5" y="12.4" width="1.9" height="1.9" rx="0.3" fill="#fff" opacity="0.5" /></g>
  </svg>
  <text x="290" y="158" text-anchor="middle" font-family="system-ui" font-size="11" fill="#334155" opacity="0.75">Bank</text>
  <svg x="354" y="54" width="88" height="88" viewBox="0 0 20 20" fill="none">
    <g transform="translate(10 18) scale(1.0378) translate(-10.0000 -17.2)">
      <rect x="2.6" y="5" width="14.8" height="1.7" rx="0.5" fill="#fb7185" />
      <rect x="3.4" y="6.7" width="13.2" height="10.5" fill="#e11d48" />
      <rect x="8.8" y="7.7" width="2.4" height="5.8" rx="0.4" fill="#fff" opacity="0.95" />
      <rect x="7.1" y="9.4" width="5.8" height="2.4" rx="0.4" fill="#fff" opacity="0.95" />
      <rect x="9.1" y="14.2" width="1.8" height="3" fill="#fff" opacity="0.55" />
      <rect x="4.8" y="14.2" width="2" height="1.9" rx="0.3" fill="#fff" opacity="0.5" />
      <rect x="13.2" y="14.2" width="2" height="1.9" rx="0.3" fill="#fff" opacity="0.5" /></g>
  </svg>
  <text x="398" y="158" text-anchor="middle" font-family="system-ui" font-size="11" fill="#334155" opacity="0.75">Arztpraxis</text>
  <svg x="462" y="54" width="88" height="88" viewBox="0 0 20 20" fill="none">
    <g transform="translate(10 18) scale(1.0667) translate(-10.0000 -17.2)">
      <rect x="13.4" y="3.6" width="1.9" height="3.4" fill="#0d9488" />
      <path d="M10 2.2 2.6 8.4H17.4L10 2.2Z" fill="#5eead4" />
      <rect x="4" y="8.4" width="12" height="8.8" fill="#0d9488" />
      <rect x="5.6" y="10" width="2.3" height="2.3" rx="0.3" fill="#fff" opacity="0.55" />
      <rect x="12.1" y="10" width="2.3" height="2.3" rx="0.3" fill="#fff" opacity="0.55" />
      <rect x="8.8" y="12.9" width="2.4" height="4.3" fill="#fff" opacity="0.55" /></g>
  </svg>
  <text x="506" y="158" text-anchor="middle" font-family="system-ui" font-size="11" fill="#334155" opacity="0.75">Wohnhaus</text>
  <svg x="570" y="54" width="88" height="88" viewBox="0 0 20 20" fill="none">
    <g transform="translate(10 18) scale(1.0051) translate(-10.0000 -17.2)">
      <path d="M2.8 9.6a7.2 7.2 0 0 1 14.4 0Z" fill="#c026d3" />
      <rect x="2.2" y="9.6" width="15.6" height="1.5" rx="0.4" fill="#f0abfc" />
      <rect x="3" y="11.1" width="14" height="6.1" fill="#c026d3" opacity="0.85" />
      <circle cx="10" cy="6.4" r="1.8" fill="#fff" opacity="0.85" />
      <path d="M4.9 17.2v-2.2a1.1 1.1 0 0 1 2.2 0v2.2Z" fill="#fff" opacity="0.5" />
      <path d="M8.9 17.2v-2.2a1.1 1.1 0 0 1 2.2 0v2.2Z" fill="#fff" opacity="0.5" />
      <path d="M12.9 17.2v-2.2a1.1 1.1 0 0 1 2.2 0v2.2Z" fill="#fff" opacity="0.5" /></g>
  </svg>
  <text x="614" y="158" text-anchor="middle" font-family="system-ui" font-size="11" fill="#334155" opacity="0.75">Prüfungshalle</text>
  <svg x="30" y="188" width="88" height="88" viewBox="0 0 20 20" fill="none">
    <g transform="translate(10 18) scale(1.0959) translate(-10.4000 -17.2)">
      <rect x="3.4" y="2.6" width="9.2" height="14.6" rx="0.9" fill="#5b5be6" />
      <rect x="12.6" y="8.6" width="4.8" height="8.6" rx="0.9" fill="#22d3ee" />
      
      <rect x="5.2" y="4.6" width="2.1" height="1.7" rx="0.3" fill="#db8d06" />
      <rect x="8.6" y="4.6" width="2.1" height="1.7" rx="0.3" fill="#db8d06" />
      <rect x="5.2" y="7.5" width="2.1" height="1.7" rx="0.3" fill="#db8d06" />
      <rect x="8.6" y="7.5" width="2.1" height="1.7" rx="0.3" fill="#db8d06" />
      <rect x="5.2" y="10.4" width="2.1" height="1.7" rx="0.3" fill="#db8d06" />
      <rect x="8.6" y="10.4" width="2.1" height="1.7" rx="0.3" fill="#db8d06" />
      <rect x="5.2" y="13.3" width="2.1" height="1.7" rx="0.3" fill="#db8d06" />
      <rect x="8.6" y="13.3" width="2.1" height="1.7" rx="0.3" fill="#db8d06" />
      <rect x="14" y="10.6" width="2.1" height="1.7" rx="0.3" fill="#db8d06" />
      <rect x="14" y="13.5" width="2.1" height="1.7" rx="0.3" fill="#db8d06" /></g>
  </svg>
  <text x="74" y="292" text-anchor="middle" font-family="system-ui" font-size="11" fill="#334155" opacity="0.75">Büro · lit</text>
  <svg x="138" y="188" width="88" height="88" viewBox="0 0 20 20" fill="none">
    <g transform="translate(10 18) scale(1.0316) translate(-10.0000 -17.2)">
      <path d="M10 2 2.4 7.2H17.6L10 2Z" fill="#fbbf24" />
      <circle cx="10" cy="5.5" r="0.9" fill="#fff" opacity="0.75" />
      <rect x="3.2" y="7.2" width="13.6" height="1.4" rx="0.3" fill="#64748b" />
      
      <rect x="5.8" y="8.6" width="1.6" height="6.9" fill="#db8d06" />
      <rect x="9.2" y="8.6" width="1.6" height="6.9" fill="#db8d06" />
      <rect x="12.6" y="8.6" width="1.6" height="6.9" fill="#db8d06" />
      
      <rect x="4" y="8.6" width="1.8" height="6.9" fill="#64748b" />
      <rect x="7.4" y="8.6" width="1.8" height="6.9" fill="#64748b" />
      <rect x="10.8" y="8.6" width="1.8" height="6.9" fill="#64748b" />
      <rect x="14.2" y="8.6" width="1.8" height="6.9" fill="#64748b" />
      <rect x="2.4" y="15.5" width="15.2" height="1.7" rx="0.4" fill="#64748b" /></g>
  </svg>
  <text x="182" y="292" text-anchor="middle" font-family="system-ui" font-size="11" fill="#334155" opacity="0.75">Bürgeramt · lit</text>
  <svg x="246" y="188" width="88" height="88" viewBox="0 0 20 20" fill="none">
    <g transform="translate(10 18) scale(1.0105) translate(-10.0000 -17.2)">
      <rect x="2.4" y="4.8" width="15.2" height="1.7" rx="0.5" fill="#67e8f9" />
      <rect x="3.2" y="6.5" width="13.6" height="9.2" fill="#0ea5e9" />
      <rect x="2.6" y="15.7" width="14.8" height="1.5" rx="0.4" fill="#0ea5e9" opacity="0.85" />
      <circle cx="10" cy="9.7" r="1.7" fill="none" stroke-width="1.25" stroke="#db8d06" />
      <rect x="8.9" y="13.6" width="2.2" height="2.1" fill="#db8d06" />
      <rect x="4.6" y="12.4" width="1.9" height="1.9" rx="0.3" fill="#db8d06" />
      <rect x="13.5" y="12.4" width="1.9" height="1.9" rx="0.3" fill="#db8d06" /></g>
  </svg>
  <text x="290" y="292" text-anchor="middle" font-family="system-ui" font-size="11" fill="#334155" opacity="0.75">Bank · lit</text>
  <svg x="354" y="188" width="88" height="88" viewBox="0 0 20 20" fill="none">
    <g transform="translate(10 18) scale(1.0378) translate(-10.0000 -17.2)">
      <rect x="2.6" y="5" width="14.8" height="1.7" rx="0.5" fill="#fb7185" />
      <rect x="3.4" y="6.7" width="13.2" height="10.5" fill="#e11d48" />
      <rect x="8.8" y="7.7" width="2.4" height="5.8" rx="0.4" fill="#db8d06" />
      <rect x="7.1" y="9.4" width="5.8" height="2.4" rx="0.4" fill="#db8d06" />
      <rect x="9.1" y="14.2" width="1.8" height="3" fill="#db8d06" />
      <rect x="4.8" y="14.2" width="2" height="1.9" rx="0.3" fill="#db8d06" />
      <rect x="13.2" y="14.2" width="2" height="1.9" rx="0.3" fill="#db8d06" /></g>
  </svg>
  <text x="398" y="292" text-anchor="middle" font-family="system-ui" font-size="11" fill="#334155" opacity="0.75">Arztpraxis · lit</text>
  <svg x="462" y="188" width="88" height="88" viewBox="0 0 20 20" fill="none">
    <g transform="translate(10 18) scale(1.0667) translate(-10.0000 -17.2)">
      <rect x="13.4" y="3.6" width="1.9" height="3.4" fill="#0d9488" />
      <path d="M10 2.2 2.6 8.4H17.4L10 2.2Z" fill="#5eead4" />
      <rect x="4" y="8.4" width="12" height="8.8" fill="#0d9488" />
      <rect x="5.6" y="10" width="2.3" height="2.3" rx="0.3" fill="#db8d06" />
      <rect x="12.1" y="10" width="2.3" height="2.3" rx="0.3" fill="#db8d06" />
      <rect x="8.8" y="12.9" width="2.4" height="4.3" fill="#db8d06" /></g>
  </svg>
  <text x="506" y="292" text-anchor="middle" font-family="system-ui" font-size="11" fill="#334155" opacity="0.75">Wohnhaus · lit</text>
  <svg x="570" y="188" width="88" height="88" viewBox="0 0 20 20" fill="none">
    <g transform="translate(10 18) scale(1.0051) translate(-10.0000 -17.2)">
      <path d="M2.8 9.6a7.2 7.2 0 0 1 14.4 0Z" fill="#c026d3" />
      <rect x="2.2" y="9.6" width="15.6" height="1.5" rx="0.4" fill="#f0abfc" />
      <rect x="3" y="11.1" width="14" height="6.1" fill="#c026d3" opacity="0.85" />
      <circle cx="10" cy="6.4" r="1.8" fill="#db8d06" />
      <path d="M4.9 17.2v-2.2a1.1 1.1 0 0 1 2.2 0v2.2Z" fill="#db8d06" />
      <path d="M8.9 17.2v-2.2a1.1 1.1 0 0 1 2.2 0v2.2Z" fill="#db8d06" />
      <path d="M12.9 17.2v-2.2a1.1 1.1 0 0 1 2.2 0v2.2Z" fill="#db8d06" /></g>
  </svg>
  <text x="614" y="292" text-anchor="middle" font-family="system-ui" font-size="11" fill="#334155" opacity="0.75">Prüfungshalle · lit</text>
<rect x="10" y="338" width="668" height="314" rx="14" fill="#16161f" />
  <text x="30" y="368" font-family="system-ui" font-size="13" font-weight="600" fill="#cbd5e1">Dark · unlit / lit</text>
  <svg x="30" y="382" width="88" height="88" viewBox="0 0 20 20" fill="none">
    <g transform="translate(10 18) scale(1.0959) translate(-10.4000 -17.2)">
      <rect x="3.4" y="2.6" width="9.2" height="14.6" rx="0.9" fill="#5b5be6" />
      <rect x="12.6" y="8.6" width="4.8" height="8.6" rx="0.9" fill="#22d3ee" />
      
      <rect x="5.2" y="4.6" width="2.1" height="1.7" rx="0.3" fill="#fff" opacity="0.5" />
      <rect x="8.6" y="4.6" width="2.1" height="1.7" rx="0.3" fill="#fff" opacity="0.5" />
      <rect x="5.2" y="7.5" width="2.1" height="1.7" rx="0.3" fill="#fff" opacity="0.5" />
      <rect x="8.6" y="7.5" width="2.1" height="1.7" rx="0.3" fill="#fff" opacity="0.5" />
      <rect x="5.2" y="10.4" width="2.1" height="1.7" rx="0.3" fill="#fff" opacity="0.5" />
      <rect x="8.6" y="10.4" width="2.1" height="1.7" rx="0.3" fill="#fff" opacity="0.5" />
      <rect x="5.2" y="13.3" width="2.1" height="1.7" rx="0.3" fill="#fff" opacity="0.5" />
      <rect x="8.6" y="13.3" width="2.1" height="1.7" rx="0.3" fill="#fff" opacity="0.5" />
      <rect x="14" y="10.6" width="2.1" height="1.7" rx="0.3" fill="#fff" opacity="0.8" />
      <rect x="14" y="13.5" width="2.1" height="1.7" rx="0.3" fill="#fff" opacity="0.8" /></g>
  </svg>
  <text x="74" y="486" text-anchor="middle" font-family="system-ui" font-size="11" fill="#cbd5e1" opacity="0.75">Büro</text>
  <svg x="138" y="382" width="88" height="88" viewBox="0 0 20 20" fill="none">
    <g transform="translate(10 18) scale(1.0316) translate(-10.0000 -17.2)">
      <path d="M10 2 2.4 7.2H17.6L10 2Z" fill="#fbbf24" />
      <circle cx="10" cy="5.5" r="0.9" fill="#fff" opacity="0.75" />
      <rect x="3.2" y="7.2" width="13.6" height="1.4" rx="0.3" fill="#64748b" />
      
      <rect x="5.8" y="8.6" width="1.6" height="6.9" fill="#64748b" opacity="0.28" />
      <rect x="9.2" y="8.6" width="1.6" height="6.9" fill="#64748b" opacity="0.28" />
      <rect x="12.6" y="8.6" width="1.6" height="6.9" fill="#64748b" opacity="0.28" />
      
      <rect x="4" y="8.6" width="1.8" height="6.9" fill="#64748b" />
      <rect x="7.4" y="8.6" width="1.8" height="6.9" fill="#64748b" />
      <rect x="10.8" y="8.6" width="1.8" height="6.9" fill="#64748b" />
      <rect x="14.2" y="8.6" width="1.8" height="6.9" fill="#64748b" />
      <rect x="2.4" y="15.5" width="15.2" height="1.7" rx="0.4" fill="#64748b" /></g>
  </svg>
  <text x="182" y="486" text-anchor="middle" font-family="system-ui" font-size="11" fill="#cbd5e1" opacity="0.75">Bürgeramt</text>
  <svg x="246" y="382" width="88" height="88" viewBox="0 0 20 20" fill="none">
    <g transform="translate(10 18) scale(1.0105) translate(-10.0000 -17.2)">
      <rect x="2.4" y="4.8" width="15.2" height="1.7" rx="0.5" fill="#67e8f9" />
      <rect x="3.2" y="6.5" width="13.6" height="9.2" fill="#0ea5e9" />
      <rect x="2.6" y="15.7" width="14.8" height="1.5" rx="0.4" fill="#0ea5e9" opacity="0.85" />
      <circle cx="10" cy="9.7" r="1.7" fill="none" stroke-width="1.25" stroke="#fff" opacity="0.85" />
      <rect x="8.9" y="13.6" width="2.2" height="2.1" fill="#fff" opacity="0.5" />
      <rect x="4.6" y="12.4" width="1.9" height="1.9" rx="0.3" fill="#fff" opacity="0.5" />
      <rect x="13.5" y="12.4" width="1.9" height="1.9" rx="0.3" fill="#fff" opacity="0.5" /></g>
  </svg>
  <text x="290" y="486" text-anchor="middle" font-family="system-ui" font-size="11" fill="#cbd5e1" opacity="0.75">Bank</text>
  <svg x="354" y="382" width="88" height="88" viewBox="0 0 20 20" fill="none">
    <g transform="translate(10 18) scale(1.0378) translate(-10.0000 -17.2)">
      <rect x="2.6" y="5" width="14.8" height="1.7" rx="0.5" fill="#fb7185" />
      <rect x="3.4" y="6.7" width="13.2" height="10.5" fill="#e11d48" />
      <rect x="8.8" y="7.7" width="2.4" height="5.8" rx="0.4" fill="#fff" opacity="0.95" />
      <rect x="7.1" y="9.4" width="5.8" height="2.4" rx="0.4" fill="#fff" opacity="0.95" />
      <rect x="9.1" y="14.2" width="1.8" height="3" fill="#fff" opacity="0.55" />
      <rect x="4.8" y="14.2" width="2" height="1.9" rx="0.3" fill="#fff" opacity="0.5" />
      <rect x="13.2" y="14.2" width="2" height="1.9" rx="0.3" fill="#fff" opacity="0.5" /></g>
  </svg>
  <text x="398" y="486" text-anchor="middle" font-family="system-ui" font-size="11" fill="#cbd5e1" opacity="0.75">Arztpraxis</text>
  <svg x="462" y="382" width="88" height="88" viewBox="0 0 20 20" fill="none">
    <g transform="translate(10 18) scale(1.0667) translate(-10.0000 -17.2)">
      <rect x="13.4" y="3.6" width="1.9" height="3.4" fill="#0d9488" />
      <path d="M10 2.2 2.6 8.4H17.4L10 2.2Z" fill="#5eead4" />
      <rect x="4" y="8.4" width="12" height="8.8" fill="#0d9488" />
      <rect x="5.6" y="10" width="2.3" height="2.3" rx="0.3" fill="#fff" opacity="0.55" />
      <rect x="12.1" y="10" width="2.3" height="2.3" rx="0.3" fill="#fff" opacity="0.55" />
      <rect x="8.8" y="12.9" width="2.4" height="4.3" fill="#fff" opacity="0.55" /></g>
  </svg>
  <text x="506" y="486" text-anchor="middle" font-family="system-ui" font-size="11" fill="#cbd5e1" opacity="0.75">Wohnhaus</text>
  <svg x="570" y="382" width="88" height="88" viewBox="0 0 20 20" fill="none">
    <g transform="translate(10 18) scale(1.0051) translate(-10.0000 -17.2)">
      <path d="M2.8 9.6a7.2 7.2 0 0 1 14.4 0Z" fill="#c026d3" />
      <rect x="2.2" y="9.6" width="15.6" height="1.5" rx="0.4" fill="#f0abfc" />
      <rect x="3" y="11.1" width="14" height="6.1" fill="#c026d3" opacity="0.85" />
      <circle cx="10" cy="6.4" r="1.8" fill="#fff" opacity="0.85" />
      <path d="M4.9 17.2v-2.2a1.1 1.1 0 0 1 2.2 0v2.2Z" fill="#fff" opacity="0.5" />
      <path d="M8.9 17.2v-2.2a1.1 1.1 0 0 1 2.2 0v2.2Z" fill="#fff" opacity="0.5" />
      <path d="M12.9 17.2v-2.2a1.1 1.1 0 0 1 2.2 0v2.2Z" fill="#fff" opacity="0.5" /></g>
  </svg>
  <text x="614" y="486" text-anchor="middle" font-family="system-ui" font-size="11" fill="#cbd5e1" opacity="0.75">Prüfungshalle</text>
  <svg x="30" y="516" width="88" height="88" viewBox="0 0 20 20" fill="none">
    <g transform="translate(10 18) scale(1.0959) translate(-10.4000 -17.2)">
      <rect x="3.4" y="2.6" width="9.2" height="14.6" rx="0.9" fill="#5b5be6" />
      <rect x="12.6" y="8.6" width="4.8" height="8.6" rx="0.9" fill="#22d3ee" />
      
      <rect x="5.2" y="4.6" width="2.1" height="1.7" rx="0.3" fill="#e8a33d" />
      <rect x="8.6" y="4.6" width="2.1" height="1.7" rx="0.3" fill="#e8a33d" />
      <rect x="5.2" y="7.5" width="2.1" height="1.7" rx="0.3" fill="#e8a33d" />
      <rect x="8.6" y="7.5" width="2.1" height="1.7" rx="0.3" fill="#e8a33d" />
      <rect x="5.2" y="10.4" width="2.1" height="1.7" rx="0.3" fill="#e8a33d" />
      <rect x="8.6" y="10.4" width="2.1" height="1.7" rx="0.3" fill="#e8a33d" />
      <rect x="5.2" y="13.3" width="2.1" height="1.7" rx="0.3" fill="#e8a33d" />
      <rect x="8.6" y="13.3" width="2.1" height="1.7" rx="0.3" fill="#e8a33d" />
      <rect x="14" y="10.6" width="2.1" height="1.7" rx="0.3" fill="#e8a33d" />
      <rect x="14" y="13.5" width="2.1" height="1.7" rx="0.3" fill="#e8a33d" /></g>
  </svg>
  <text x="74" y="620" text-anchor="middle" font-family="system-ui" font-size="11" fill="#cbd5e1" opacity="0.75">Büro · lit</text>
  <svg x="138" y="516" width="88" height="88" viewBox="0 0 20 20" fill="none">
    <g transform="translate(10 18) scale(1.0316) translate(-10.0000 -17.2)">
      <path d="M10 2 2.4 7.2H17.6L10 2Z" fill="#fbbf24" />
      <circle cx="10" cy="5.5" r="0.9" fill="#fff" opacity="0.75" />
      <rect x="3.2" y="7.2" width="13.6" height="1.4" rx="0.3" fill="#64748b" />
      
      <rect x="5.8" y="8.6" width="1.6" height="6.9" fill="#e8a33d" />
      <rect x="9.2" y="8.6" width="1.6" height="6.9" fill="#e8a33d" />
      <rect x="12.6" y="8.6" width="1.6" height="6.9" fill="#e8a33d" />
      
      <rect x="4" y="8.6" width="1.8" height="6.9" fill="#64748b" />
      <rect x="7.4" y="8.6" width="1.8" height="6.9" fill="#64748b" />
      <rect x="10.8" y="8.6" width="1.8" height="6.9" fill="#64748b" />
      <rect x="14.2" y="8.6" width="1.8" height="6.9" fill="#64748b" />
      <rect x="2.4" y="15.5" width="15.2" height="1.7" rx="0.4" fill="#64748b" /></g>
  </svg>
  <text x="182" y="620" text-anchor="middle" font-family="system-ui" font-size="11" fill="#cbd5e1" opacity="0.75">Bürgeramt · lit</text>
  <svg x="246" y="516" width="88" height="88" viewBox="0 0 20 20" fill="none">
    <g transform="translate(10 18) scale(1.0105) translate(-10.0000 -17.2)">
      <rect x="2.4" y="4.8" width="15.2" height="1.7" rx="0.5" fill="#67e8f9" />
      <rect x="3.2" y="6.5" width="13.6" height="9.2" fill="#0ea5e9" />
      <rect x="2.6" y="15.7" width="14.8" height="1.5" rx="0.4" fill="#0ea5e9" opacity="0.85" />
      <circle cx="10" cy="9.7" r="1.7" fill="none" stroke-width="1.25" stroke="#e8a33d" />
      <rect x="8.9" y="13.6" width="2.2" height="2.1" fill="#e8a33d" />
      <rect x="4.6" y="12.4" width="1.9" height="1.9" rx="0.3" fill="#e8a33d" />
      <rect x="13.5" y="12.4" width="1.9" height="1.9" rx="0.3" fill="#e8a33d" /></g>
  </svg>
  <text x="290" y="620" text-anchor="middle" font-family="system-ui" font-size="11" fill="#cbd5e1" opacity="0.75">Bank · lit</text>
  <svg x="354" y="516" width="88" height="88" viewBox="0 0 20 20" fill="none">
    <g transform="translate(10 18) scale(1.0378) translate(-10.0000 -17.2)">
      <rect x="2.6" y="5" width="14.8" height="1.7" rx="0.5" fill="#fb7185" />
      <rect x="3.4" y="6.7" width="13.2" height="10.5" fill="#e11d48" />
      <rect x="8.8" y="7.7" width="2.4" height="5.8" rx="0.4" fill="#e8a33d" />
      <rect x="7.1" y="9.4" width="5.8" height="2.4" rx="0.4" fill="#e8a33d" />
      <rect x="9.1" y="14.2" width="1.8" height="3" fill="#e8a33d" />
      <rect x="4.8" y="14.2" width="2" height="1.9" rx="0.3" fill="#e8a33d" />
      <rect x="13.2" y="14.2" width="2" height="1.9" rx="0.3" fill="#e8a33d" /></g>
  </svg>
  <text x="398" y="620" text-anchor="middle" font-family="system-ui" font-size="11" fill="#cbd5e1" opacity="0.75">Arztpraxis · lit</text>
  <svg x="462" y="516" width="88" height="88" viewBox="0 0 20 20" fill="none">
    <g transform="translate(10 18) scale(1.0667) translate(-10.0000 -17.2)">
      <rect x="13.4" y="3.6" width="1.9" height="3.4" fill="#0d9488" />
      <path d="M10 2.2 2.6 8.4H17.4L10 2.2Z" fill="#5eead4" />
      <rect x="4" y="8.4" width="12" height="8.8" fill="#0d9488" />
      <rect x="5.6" y="10" width="2.3" height="2.3" rx="0.3" fill="#e8a33d" />
      <rect x="12.1" y="10" width="2.3" height="2.3" rx="0.3" fill="#e8a33d" />
      <rect x="8.8" y="12.9" width="2.4" height="4.3" fill="#e8a33d" /></g>
  </svg>
  <text x="506" y="620" text-anchor="middle" font-family="system-ui" font-size="11" fill="#cbd5e1" opacity="0.75">Wohnhaus · lit</text>
  <svg x="570" y="516" width="88" height="88" viewBox="0 0 20 20" fill="none">
    <g transform="translate(10 18) scale(1.0051) translate(-10.0000 -17.2)">
      <path d="M2.8 9.6a7.2 7.2 0 0 1 14.4 0Z" fill="#c026d3" />
      <rect x="2.2" y="9.6" width="15.6" height="1.5" rx="0.4" fill="#f0abfc" />
      <rect x="3" y="11.1" width="14" height="6.1" fill="#c026d3" opacity="0.85" />
      <circle cx="10" cy="6.4" r="1.8" fill="#e8a33d" />
      <path d="M4.9 17.2v-2.2a1.1 1.1 0 0 1 2.2 0v2.2Z" fill="#e8a33d" />
      <path d="M8.9 17.2v-2.2a1.1 1.1 0 0 1 2.2 0v2.2Z" fill="#e8a33d" />
      <path d="M12.9 17.2v-2.2a1.1 1.1 0 0 1 2.2 0v2.2Z" fill="#e8a33d" /></g>
  </svg>
  <text x="614" y="620" text-anchor="middle" font-family="system-ui" font-size="11" fill="#cbd5e1" opacity="0.75">Prüfungshalle · lit</text>
</svg>