<svg xmlns="http://www.w3.org/2000/svg" width="520" height="560" viewBox="0 0 520 560" font-family="system-ui, sans-serif">
  <rect width="520" height="560" fill="#ffffff"/>
  <text x="20" y="34" font-size="18" font-weight="700" fill="#111827">Genauly · branded route icons (one per section)</text>

  <!-- Row 1 -->
  <g transform="translate(20,60)">
    <svg x="0" y="0" width="60" height="60" viewBox="0 0 20 20">
      <rect x="2" y="2" width="7" height="7" rx="1.6" fill="#5b5be6"/>
      <rect x="11" y="2" width="7" height="7" rx="1.6" fill="#5b5be6" opacity=".72"/>
      <rect x="2" y="11" width="7" height="7" rx="1.6" fill="#5b5be6" opacity=".72"/>
      <rect x="11" y="11" width="7" height="7" rx="1.6" fill="#5b5be6" opacity=".45"/>
    </svg>
    <text x="30" y="74" font-size="11" fill="#374151" text-anchor="middle">Dashboard</text>
  </g>
  <g transform="translate(140,60)">
    <svg x="0" y="0" width="60" height="60" viewBox="0 0 20 20">
      <path d="M10 3.4C7.7 2.4 4.8 2.4 2.4 3.4V16.6c2.4-1 5.3-1 7.6 0V3.4Z" fill="#2563eb"/>
      <path d="M10 3.4c2.3-1 5.2-1 7.6 0V16.6c-2.4-1-5.3-1-7.6 0V3.4Z" fill="#2563eb" opacity=".5"/>
      <line x1="4.4" y1="7" x2="8.2" y2="7" stroke="#fff" stroke-width="1" stroke-linecap="round" opacity=".75"/>
      <line x1="4.4" y1="9.6" x2="8.2" y2="9.6" stroke="#fff" stroke-width="1" stroke-linecap="round" opacity=".55"/>
      <line x1="4.4" y1="12.2" x2="7" y2="12.2" stroke="#fff" stroke-width="1" stroke-linecap="round" opacity=".4"/>
    </svg>
    <text x="30" y="74" font-size="11" fill="#374151" text-anchor="middle">Wortschatz</text>
  </g>
  <g transform="translate(260,60)">
    <svg x="0" y="0" width="60" height="60" viewBox="0 0 20 20">
      <path d="M3 5a2.5 2.5 0 0 1 2.5-2.5h9A2.5 2.5 0 0 1 17 5v5a2.5 2.5 0 0 1-2.5 2.5H8l-3.4 3V12.5A2.5 2.5 0 0 1 3 10V5Z" fill="#8b5cf6"/>
      <circle cx="6.8" cy="7.5" r="1.05" fill="#fff" opacity=".9"/>
      <circle cx="10" cy="7.5" r="1.05" fill="#fff" opacity=".7"/>
      <circle cx="13.2" cy="7.5" r="1.05" fill="#fff" opacity=".5"/>
    </svg>
    <text x="30" y="74" font-size="11" fill="#374151" text-anchor="middle">Redemittel</text>
  </g>
  <g transform="translate(380,60)">
    <svg x="0" y="0" width="60" height="60" viewBox="0 0 20 20">
      <path d="M5.5 2.5h9a1 1 0 0 1 1 1V17.2l-5.5-3.1L4.5 17.2V3.5a1 1 0 0 1 1-1Z" fill="#10b981"/>
      <line x1="7.4" y1="6.2" x2="12.6" y2="6.2" stroke="#fff" stroke-width="1.2" stroke-linecap="round" opacity=".8"/>
      <line x1="7.4" y1="8.8" x2="11" y2="8.8" stroke="#fff" stroke-width="1.2" stroke-linecap="round" opacity=".55"/>
    </svg>
    <text x="30" y="74" font-size="11" fill="#374151" text-anchor="middle">Grammatik</text>
  </g>

  <!-- Row 2 -->
  <g transform="translate(20,200)">
    <svg x="0" y="0" width="60" height="60" viewBox="0 0 20 20">
      <circle cx="7.6" cy="10" r="4.4" stroke="#f59e0b" stroke-width="2.3" fill="none"/>
      <circle cx="12.4" cy="10" r="4.4" stroke="#f59e0b" stroke-width="2.3" fill="none" opacity=".55"/>
    </svg>
    <text x="30" y="74" font-size="11" fill="#374151" text-anchor="middle">Kollokationen</text>
  </g>
  <g transform="translate(140,200)">
    <svg x="0" y="0" width="60" height="60" viewBox="0 0 20 20">
      <circle cx="10" cy="10" r="8.6" fill="#f97316"/>
      <polyline points="6,10.5 8.7,13 14,7" stroke="#fff" stroke-width="1.8" stroke-linecap="round" stroke-linejoin="round" fill="none"/>
    </svg>
    <text x="30" y="74" font-size="11" fill="#374151" text-anchor="middle">Quiz</text>
  </g>
  <g transform="translate(260,200)">
    <svg x="0" y="0" width="60" height="60" viewBox="0 0 20 20">
      <path d="M14.7 2.9a1.7 1.7 0 0 1 2.4 2.4L7.5 14.9l-3.4.9.9-3.4 9.7-9.5Z" fill="#ef4444"/>
      <line x1="13.2" y1="4.4" x2="15.6" y2="6.8" stroke="#fff" stroke-width="1.1" stroke-linecap="round" opacity=".65"/>
    </svg>
    <text x="30" y="74" font-size="11" fill="#374151" text-anchor="middle">Schreibtraining</text>
  </g>
  <g transform="translate(380,200)">
    <svg x="0" y="0" width="60" height="60" viewBox="0 0 20 20">
      <rect x="7.5" y="2.4" width="5" height="9.2" rx="2.5" fill="#06b6d4"/>
      <path d="M5 9.4a5 5 0 0 0 10 0" stroke="#06b6d4" stroke-width="1.6" stroke-linecap="round" fill="none" opacity=".6"/>
      <line x1="10" y1="14.4" x2="10" y2="17" stroke="#06b6d4" stroke-width="1.6" stroke-linecap="round" opacity=".6"/>
      <line x1="7.2" y1="17" x2="12.8" y2="17" stroke="#06b6d4" stroke-width="1.6" stroke-linecap="round" opacity=".6"/>
    </svg>
    <text x="30" y="74" font-size="11" fill="#374151" text-anchor="middle">Sprechsimulation</text>
  </g>

  <!-- Row 3 -->
  <g transform="translate(20,340)">
    <svg x="0" y="0" width="60" height="60" viewBox="0 0 20 20">
      <path d="M10 2.8 1.8 6.4 10 10l8.2-3.6L10 2.8Z" fill="#c026d3"/>
      <path d="M4.8 8.6v3.4c0 1.5 2.4 2.7 5.2 2.7s5.2-1.2 5.2-2.7V8.6L10 10.9 4.8 8.6Z" fill="#c026d3" opacity=".55"/>
      <line x1="17.4" y1="6.6" x2="17.4" y2="11.2" stroke="#c026d3" stroke-width="1.2" stroke-linecap="round"/>
    </svg>
    <text x="30" y="74" font-size="11" fill="#374151" text-anchor="middle">Prüfungsmodus</text>
  </g>
  <g transform="translate(140,340)">
    <svg x="0" y="0" width="60" height="60" viewBox="0 0 20 20">
      <polygon points="12,2 4.8,11 9.2,11 8,18 15.2,8.6 10.8,8.6" fill="#eab308"/>
    </svg>
    <text x="30" y="74" font-size="11" fill="#374151" text-anchor="middle">Schnellwiederholung</text>
  </g>
  <g transform="translate(260,340)">
    <svg x="0" y="0" width="60" height="60" viewBox="0 0 20 20">
      <rect x="2.5" y="11" width="3.5" height="6.5" rx="1.2" fill="#0ea5e9"/>
      <rect x="8.25" y="7" width="3.5" height="10.5" rx="1.2" fill="#0ea5e9" opacity=".78"/>
      <rect x="14" y="3" width="3.5" height="14.5" rx="1.2" fill="#0ea5e9" opacity=".52"/>
    </svg>
    <text x="30" y="74" font-size="11" fill="#374151" text-anchor="middle">Fortschritt</text>
  </g>
  <g transform="translate(380,340)">
    <svg x="0" y="0" width="60" height="60" viewBox="0 0 20 20">
      <g transform="translate(10 10) scale(0.83) translate(-12 -12)">
        <path fill="#64748b" fill-rule="evenodd" d="M19.14 12.94c.04-.3.06-.61.06-.94 0-.32-.02-.64-.07-.94l2.03-1.58c.18-.14.23-.41.12-.61l-1.92-3.32c-.12-.22-.37-.29-.59-.22l-2.39.96c-.5-.38-1.03-.7-1.62-.94l-.36-2.54c-.04-.24-.24-.41-.48-.41h-3.84c-.24 0-.43.17-.47.41l-.36 2.54c-.59.24-1.13.57-1.62.94l-2.39-.96c-.22-.08-.47 0-.59.22L2.74 8.87c-.12.21-.08.47.12.61l2.03 1.58c-.05.3-.09.63-.09.94s.02.64.07.94l-2.03 1.58c-.18.14-.23.41-.12.61l1.92 3.32c.12.22.37.29.59.22l2.39-.96c.5.38 1.03.7 1.62.94l.36 2.54c.05.24.24.41.48.41h3.84c.24 0 .44-.17.47-.41l.36-2.54c.59-.24 1.13-.56 1.62-.94l2.39.96c.22.08.47 0 .59-.22l1.92-3.32c.12-.22.07-.47-.12-.61l-2.01-1.58ZM12 15.6c-1.98 0-3.6-1.62-3.6-3.6s1.62-3.6 3.6-3.6 3.6 1.62 3.6 3.6-1.62 3.6-3.6 3.6Z"/>
      </g>
    </svg>
    <text x="30" y="74" font-size="11" fill="#374151" text-anchor="middle">Einstellungen</text>
  </g>

  <!-- Mehr -->
  <g transform="translate(20,470)">
    <svg x="0" y="0" width="60" height="60" viewBox="0 0 20 20">
      <circle cx="5" cy="5" r="2.4" fill="#5b5be6" opacity=".9"/>
      <circle cx="10" cy="5" r="2.4" fill="#5b5be6" opacity=".825"/>
      <circle cx="15" cy="5" r="2.4" fill="#5b5be6" opacity=".75"/>
      <circle cx="5" cy="10" r="2.4" fill="#5b5be6" opacity=".675"/>
      <circle cx="10" cy="10" r="2.4" fill="#5b5be6" opacity=".6"/>
      <circle cx="15" cy="10" r="2.4" fill="#5b5be6" opacity=".525"/>
      <circle cx="5" cy="15" r="2.4" fill="#5b5be6" opacity=".45"/>
      <circle cx="10" cy="15" r="2.4" fill="#5b5be6" opacity=".375"/>
      <circle cx="15" cy="15" r="2.4" fill="#5b5be6" opacity=".3"/>
    </svg>
    <text x="30" y="74" font-size="11" fill="#374151" text-anchor="middle">Mehr (Menü)</text>
  </g>
</svg>
