<svg xmlns="http://www.w3.org/2000/svg" viewBox="0 0 166 121" width="166" height="121"><g transform="translate(51.00 0)"><rect width="64" height="64" rx="14" fill="#FAF6EC"/><path d="M 12 24 L 52 20 Q 57 23 55 30 L 54 45 L 13 49 Q 9 45 10 34 Z" fill="#52C6F9" transform="rotate(-3 32 32)"/><path d="M31.50 56.06Q28.50 56.06 26.27 55.31Q24.03 54.55 22.65 53.19Q21.26 51.84 20.85 50.06L27.07 48.78Q27.27 49.40 27.83 49.92Q28.38 50.45 29.28 50.76Q30.19 51.08 31.46 51.08Q33.65 51.08 34.83 50.10Q36.01 49.11 36.01 47.06L36.01 43L35.46 43Q35.05 44.03 34.24 44.87Q33.43 45.71 32.18 46.20Q30.94 46.69 29.24 46.69Q26.72 46.69 24.64 45.51Q22.56 44.33 21.31 41.86Q20.05 39.39 20.05 35.54Q20.05 31.52 21.35 28.91Q22.64 26.31 24.72 25.05Q26.80 23.79 29.22 23.79Q31.05 23.79 32.35 24.40Q33.65 25.02 34.50 25.99Q35.35 26.96 35.78 28.01L35.99 28.01L35.99 24.07L43.06 24.07L43.06 46.49Q43.06 49.65 41.60 51.78Q40.13 53.91 37.53 54.99Q34.92 56.06 31.50 56.06M31.68 41.44Q33.06 41.44 34.02 40.75Q34.98 40.05 35.50 38.70Q36.01 37.36 36.01 35.52Q36.01 33.63 35.50 32.25Q34.98 30.88 34.03 30.13Q33.08 29.38 31.68 29.38Q30.31 29.38 29.35 30.15Q28.40 30.92 27.91 32.30Q27.42 33.67 27.42 35.52Q27.42 37.36 27.91 38.69Q28.40 40.03 29.35 40.73Q30.31 41.44 31.68 41.44" fill="#1C1A24"/></g><g transform="translate(0.35 82) scale(0.4069)"><g transform="translate(-4 -26.27)"><path d="M38.92 100.98Q28.56 100.98 20.70 96.46Q12.84 91.94 8.42 83.59Q4 75.24 4 63.77Q4 51.86 8.67 43.48Q13.33 35.11 21.17 30.69Q29 26.27 38.72 26.27Q45.02 26.27 50.42 28.08Q55.81 29.88 60.03 33.20Q64.26 36.52 66.87 41.04Q69.48 45.56 70.17 50.98L52.73 50.98Q52.10 48.73 50.90 46.95Q49.71 45.17 47.95 43.92Q46.19 42.68 43.97 42.04Q41.75 41.41 39.01 41.41Q33.74 41.41 29.81 43.99Q25.88 46.58 23.75 51.54Q21.63 56.49 21.63 63.53Q21.63 70.61 23.71 75.59Q25.78 80.57 29.69 83.20Q33.59 85.84 39.06 85.84Q43.99 85.84 47.39 84.23Q50.78 82.62 52.54 79.59Q54.20 76.76 54.30 73L39.75 73L39.75 60.35L70.95 60.35L70.95 69.92Q70.95 79.64 66.85 86.60Q62.74 93.55 55.49 97.27Q48.24 100.98 38.92 100.98M106.30 101.03Q97.75 101.03 91.55 97.63Q85.35 94.24 82.06 87.94Q78.76 81.64 78.76 72.90Q78.76 64.50 82.06 58.15Q85.35 51.81 91.41 48.27Q97.46 44.73 105.66 44.73Q111.43 44.73 116.24 46.53Q121.04 48.34 124.58 51.88Q128.13 55.42 130.05 60.60Q131.98 65.77 131.98 72.56L131.98 76.86L95.51 76.86Q95.65 80.52 96.92 83.06Q98.29 85.89 100.78 87.28Q103.27 88.67 106.59 88.67Q108.89 88.67 110.77 88.04Q112.65 87.40 113.99 86.13Q115.33 84.86 116.02 83.06L131.20 85.55Q129.83 90.23 126.49 93.73Q123.14 97.22 118.04 99.12Q112.94 101.03 106.30 101.03M95.61 66.94L115.82 66.94Q115.53 64.60 114.79 62.74Q113.62 60.01 111.38 58.54Q109.13 57.08 105.81 57.08Q102.49 57.08 100.20 58.57Q97.90 60.06 96.73 62.70Q95.85 64.60 95.61 66.94M157.96 68.85L157.96 100L140.92 100L140.92 45.41L156.93 45.41L157.23 57.23Q159.23 52.05 162.84 48.68Q167.09 44.73 174.32 44.73Q180.03 44.73 184.28 47.27Q188.53 49.80 190.87 54.44Q193.21 59.08 193.21 65.23L193.21 100L176.17 100L176.17 68.55Q176.17 63.96 173.83 61.35Q171.48 58.74 167.29 58.74Q164.55 58.74 162.43 59.94Q160.30 61.13 159.13 63.38Q157.96 65.63 157.96 68.85M219.73 100.98Q214.50 100.98 210.42 99.19Q206.35 97.41 204.05 93.82Q201.76 90.23 201.76 84.86Q201.76 80.32 203.34 77.20Q204.93 74.07 207.76 72.12Q210.60 70.17 214.26 69.14Q217.92 68.12 222.07 67.77Q226.71 67.38 229.54 66.92Q232.37 66.46 233.69 65.53Q235.01 64.60 235.01 62.94L235.01 62.74Q235.01 60.84 234.13 59.52Q233.25 58.20 231.59 57.52Q229.93 56.84 227.59 56.84Q225.24 56.84 223.41 57.52Q221.58 58.20 220.41 59.47Q219.24 60.74 218.75 62.45L203.32 60.45Q204.39 55.76 207.54 52.22Q210.69 48.68 215.80 46.70Q220.90 44.73 227.73 44.73Q232.81 44.73 237.23 45.92Q241.65 47.12 244.97 49.44Q248.29 51.76 250.15 55.15Q252 58.54 252 62.94L252 100L235.99 100L235.99 92.33L235.55 92.33Q234.08 95.17 231.81 97.07Q229.54 98.97 226.54 99.98Q223.54 100.98 219.73 100.98M224.90 89.70Q227.78 89.70 230.10 88.53Q232.42 87.35 233.79 85.30Q235.16 83.25 235.16 80.57L235.16 75.34Q234.42 75.73 233.33 76.07Q232.23 76.42 230.91 76.68Q229.59 76.95 228.27 77.17Q226.95 77.39 225.73 77.59Q223.24 77.93 221.48 78.76Q219.73 79.59 218.80 80.91Q217.87 82.23 217.87 84.08Q217.87 85.89 218.80 87.13Q219.73 88.38 221.29 89.04Q222.85 89.70 224.90 89.70M282.23 100.68Q276.51 100.68 272.24 98.14Q267.97 95.61 265.63 90.97Q263.28 86.33 263.28 80.18L263.28 45.41L280.32 45.41L280.32 76.86Q280.32 81.45 282.69 84.06Q285.06 86.67 289.21 86.67Q292.04 86.67 294.12 85.47Q296.19 84.28 297.36 82.01Q298.54 79.74 298.54 76.56L298.54 45.41L315.58 45.41L315.58 100L299.56 100L299.32 88.18Q297.27 93.41 293.65 96.73Q289.36 100.68 282.23 100.68M326.81 27.25L343.85 27.25L343.85 100L326.81 100L326.81 27.25M354.98 119.14L358.79 106.69L360.94 107.28Q364.01 108.06 366.33 107.71Q368.65 107.37 369.90 106.01Q371.14 104.64 371 102.39L370.95 100.10L350.59 45.41L368.55 45.41L376.71 72.12Q378.37 77.59 379.35 83.11Q379.59 84.77 379.93 86.47Q380.32 84.72 380.71 83.06Q382.03 77.49 383.74 72.12L392.48 45.41L410.25 45.41L387.35 105.76Q385.69 110.16 383.01 113.55Q380.32 116.94 376.15 118.87Q371.97 120.80 365.82 120.80Q362.70 120.80 359.79 120.34Q356.88 119.87 354.98 119.14" fill="#1C1A24"/></g></g></svg>
