<svg xmlns="http://www.w3.org/2000/svg" viewBox="0 0 64 64" width="256" height="256"><path d="M 12 24 L 52 20 Q 57 23 55 30 L 54 45 L 13 49 Q 9 45 10 34 Z" fill="#52C6F9" transform="rotate(-3 32 32)"/><path d="M31.50 56.06Q28.50 56.06 26.27 55.31Q24.03 54.55 22.65 53.19Q21.26 51.84 20.85 50.06L27.07 48.78Q27.27 49.40 27.83 49.92Q28.38 50.45 29.28 50.76Q30.19 51.08 31.46 51.08Q33.65 51.08 34.83 50.10Q36.01 49.11 36.01 47.06L36.01 43L35.46 43Q35.05 44.03 34.24 44.87Q33.43 45.71 32.18 46.20Q30.94 46.69 29.24 46.69Q26.72 46.69 24.64 45.51Q22.56 44.33 21.31 41.86Q20.05 39.39 20.05 35.54Q20.05 31.52 21.35 28.91Q22.64 26.31 24.72 25.05Q26.80 23.79 29.22 23.79Q31.05 23.79 32.35 24.40Q33.65 25.02 34.50 25.99Q35.35 26.96 35.78 28.01L35.99 28.01L35.99 24.07L43.06 24.07L43.06 46.49Q43.06 49.65 41.60 51.78Q40.13 53.91 37.53 54.99Q34.92 56.06 31.50 56.06M31.68 41.44Q33.06 41.44 34.02 40.75Q34.98 40.05 35.50 38.70Q36.01 37.36 36.01 35.52Q36.01 33.63 35.50 32.25Q34.98 30.88 34.03 30.13Q33.08 29.38 31.68 29.38Q30.31 29.38 29.35 30.15Q28.40 30.92 27.91 32.30Q27.42 33.67 27.42 35.52Q27.42 37.36 27.91 38.69Q28.40 40.03 29.35 40.73Q30.31 41.44 31.68 41.44" fill="#FAF6EC"/></svg>
